<svg xmlns="http://www.w3.org/2000/svg" xmlns:xlink="http://www.w3.org/1999/xlink" aria-hidden="true" role="img" class="iconify iconify--logos" width="35.93" height="32" preserveAspectRatio="xMidYMid meet" viewBox="0 0 256 228"><path fill="#00D8FF" d="M210.483 73.824a171.49 171.49 0 0 0-8.24-2.597c.465-1.9.893-3.777 1.273-5.621c6.238-30.281 2.16-54.676-11.769-62.708c-13.355-7.7-35.196.329-57.254 19.526a171.23 171.23 0 0 0-6.375 5.848a155.866 155.866 0 0 0-4.241-3.917C100.759 3.829 77.587-4.822 63.673 3.233C49.759 11.288 45.738 35.27 51.995 65.551a170.974 170.974 0 0 0 1.892 8.48c-3.28.932-6.445 1.924-9.474 2.98C17.309 83.498 0 98.307 0 113.668c0 15.865 18.582 32.422 46.812 41.427a145.52 145.52 0 0 0 6.921 2.165a167.467 167.467 0 0 0-2.01 9.138c-6.257 30.281-2.175 54.675 11.81 62.708c13.985 8.033 35.949-.33 58.08-19.526a145.567 145.567 0 0 0 5.342-4.923a168.064 168.064 0 0 0 6.92 6.314c22.138 19.196 44.102 27.559 58.08 19.526c13.985-8.033 18.067-32.015 11.81-62.708a167.467 167.467 0 0 0-1.619-7.354c2.62-.752 5.18-1.518 7.671-2.297C237.418 146.09 256 129.533 256 113.668c0-15.361-17.309-30.17-45.517-39.844zM128.174 88.966c-13.908 0-25.186-11.279-25.186-25.186s11.278-25.186 25.186-25.186s25.186 11.279 25.186 25.186s-11.278 25.186-25.186 25.186zm0 88.966c-13.908 0-25.186-11.279-25.186-25.186s11.278-25.186 25.186-25.186s25.186 11.279 25.186 25.186s-11.278 25.186-25.186 25.186z"></path></svg> 